<svg width="24" height="24" viewBox="0 0 24 24" fill="none" xmlns="http://www.w3.org/2000/svg">
<path fill-rule="evenodd" clip-rule="evenodd" d="M14.7929 4.79287C16.0119 3.57392 17.9882 3.57393 19.2071 4.79288C20.4261 6.01183 20.4261 7.98814 19.2071 9.20709L10.562 17.8522L5.58805 19.8418C4.6901 20.201 3.79902 19.3099 4.1582 18.4119L6.14777 13.438L14.7929 4.79287ZM17.7929 6.20709C17.355 5.76919 16.645 5.76919 16.2071 6.20709L15.4142 7.00006L16.9999 8.58585L17.7929 7.79288C18.2308 7.35497 18.2308 6.64499 17.7929 6.20709ZM7.85226 14.562L13.9999 8.41427L15.5857 10.0001L9.43805 16.1477L8.5164 16.5164L7.4836 15.4836L7.85226 14.562Z" fill="black"/>
<path d="M12 19C12 18.4477 12.4477 18 13 18H16C16.5523 18 17 18.4477 17 19C17 19.5523 16.5523 20 16 20H13C12.4477 20 12 19.5523 12 19Z" fill="black"/>
<path d="M19 18C18.4477 18 18 18.4477 18 19C18 19.5523 18.4477 20 19 20C19.5523 20 20 19.5523 20 19C20 18.4477 19.5523 18 19 18Z" fill="black"/>
</svg>
