<svg width="18" height="18" viewBox="0 0 18 18" fill="none" xmlns="http://www.w3.org/2000/svg">
<path fill-rule="evenodd" clip-rule="evenodd" d="M4 1C4 0.447715 4.44772 0 5 0C5.55228 0 6 0.447715 6 1V2H12V1C12 0.447715 12.4477 0 13 0C13.5523 0 14 0.447715 14 1V2H15.0058C16.6595 2 18 3.33663 18 5.00948V14.9905C18 16.6526 16.6567 18 15.0058 18H2.9942C1.34055 18 0 16.6634 0 14.9905V5.00948C0 3.34739 1.34331 2 2.9942 2H4V1ZM12 4V5C12 5.55228 12.4477 6 13 6C13.5523 6 14 5.55228 14 5V4H15.0058C15.5574 4 16 4.44375 16 5.00948V14.9905C16 15.5491 15.5511 16 15.0058 16H2.9942C2.44259 16 2 15.5563 2 14.9905V5.00948C2 4.45093 2.44893 4 2.9942 4H4V5C4 5.55228 4.44772 6 5 6C5.55228 6 6 5.55228 6 5V4H12ZM5 10C5.55228 10 6 9.55229 6 9C6 8.44771 5.55228 8 5 8C4.44772 8 4 8.44771 4 9C4 9.55229 4.44772 10 5 10ZM10 9C10 9.55229 9.55229 10 9 10C8.44771 10 8 9.55229 8 9C8 8.44771 8.44771 8 9 8C9.55229 8 10 8.44771 10 9ZM13 10C13.5523 10 14 9.55229 14 9C14 8.44771 13.5523 8 13 8C12.4477 8 12 8.44771 12 9C12 9.55229 12.4477 10 13 10ZM6 13C6 13.5523 5.55228 14 5 14C4.44772 14 4 13.5523 4 13C4 12.4477 4.44772 12 5 12C5.55228 12 6 12.4477 6 13ZM9 14C9.55229 14 10 13.5523 10 13C10 12.4477 9.55229 12 9 12C8.44771 12 8 12.4477 8 13C8 13.5523 8.44771 14 9 14ZM14 13C14 13.5523 13.5523 14 13 14C12.4477 14 12 13.5523 12 13C12 12.4477 12.4477 12 13 12C13.5523 12 14 12.4477 14 13Z" fill="black"/>
</svg>
