<svg width="24" height="24" viewBox="0 0 24 24" fill="none" xmlns="http://www.w3.org/2000/svg">
<path fill-rule="evenodd" clip-rule="evenodd" d="M12 22C6.47715 22 2 17.5228 2 12C2 6.47715 6.47715 2 12 2C17.5228 2 22 6.47715 22 12C22 17.5228 17.5228 22 12 22ZM12 20C16.4183 20 20 16.4183 20 12C20 7.58172 16.4183 4 12 4C7.58172 4 4 7.58172 4 12C4 16.4183 7.58172 20 12 20ZM11.9999 7C11.4477 7 10.9999 7.44763 10.9999 7.99986L10.9992 13.0008L13.3158 15.3162C13.6973 15.6975 14.3124 15.7075 14.7062 15.339L14.795 15.2558C15.2076 14.8696 15.2183 14.2183 14.8187 13.8187L13 12V8C13 7.44772 12.5522 7 11.9999 7Z" fill="black"/>
</svg>
