<svg width="24" height="24" viewBox="0 0 24 24" fill="none" xmlns="http://www.w3.org/2000/svg">
<path fill-rule="evenodd" clip-rule="evenodd" d="M4 6C3.44772 6 3 5.55228 3 5C3 4.44772 3.44772 4 4 4H8L8.72361 2.55279C8.893 2.214 9.23926 2 9.61803 2H14.382C14.7607 2 15.107 2.214 15.2764 2.55279L16 4H20C20.5523 4 21 4.44772 21 5C21 5.55228 20.5523 6 20 6H19V19C19 20.6569 17.6569 22 16 22H8C6.34315 22 5 20.6569 5 19V6H4ZM7 6V19C7 19.5523 7.44772 20 8 20H16C16.5523 20 17 19.5523 17 19V6H7ZM9 9C9 8.44772 9.44772 8 10 8C10.5523 8 11 8.44772 11 9V17C11 17.5523 10.5523 18 10 18C9.44772 18 9 17.5523 9 17V9ZM14 8C13.4477 8 13 8.44772 13 9V17C13 17.5523 13.4477 18 14 18C14.5523 18 15 17.5523 15 17V9C15 8.44772 14.5523 8 14 8Z" fill="#3456F3"/>
</svg>
