<svg width="24" height="24" viewBox="0 0 24 24" fill="none" xmlns="http://www.w3.org/2000/svg">
<path fill-rule="evenodd" clip-rule="evenodd" d="M4 5C3.44772 5 3 5.44772 3 6C3 6.55228 3.44772 7 4 7H5C5.55228 7 6 6.55228 6 6C6 5.44772 5.55228 5 5 5H4ZM4 17C3.44772 17 3 17.4477 3 18C3 18.5523 3.44772 19 4 19H5C5.55228 19 6 18.5523 6 18C6 17.4477 5.55228 17 5 17H4ZM3 12C3 11.4477 3.44772 11 4 11H5C5.55228 11 6 11.4477 6 12C6 12.5523 5.55228 13 5 13H4C3.44772 13 3 12.5523 3 12ZM9 5C8.44772 5 8 5.44772 8 6C8 6.55228 8.44772 7 9 7H20C20.5523 7 21 6.55228 21 6C21 5.44772 20.5523 5 20 5H9ZM8 18C8 17.4477 8.44772 17 9 17H20C20.5523 17 21 17.4477 21 18C21 18.5523 20.5523 19 20 19H9C8.44772 19 8 18.5523 8 18ZM9 11C8.44772 11 8 11.4477 8 12C8 12.5523 8.44772 13 9 13H20C20.5523 13 21 12.5523 21 12C21 11.4477 20.5523 11 20 11H9Z" fill="black"/>
</svg>
