<svg width="24" height="24" viewBox="0 0 24 24" fill="none" xmlns="http://www.w3.org/2000/svg">
<path fill-rule="evenodd" clip-rule="evenodd" d="M2.76678 7.46591C2.21507 8.4215 2.53662 9.64002 3.49987 10.1962L4.12933 10.5596C4.04429 11.0269 3.99987 11.5083 3.99987 12C3.99987 12.5539 4.05622 13.0946 4.1635 13.6169L3.49987 14C2.53662 14.5561 2.21507 15.7747 2.76678 16.7302L3.76887 18.4659C4.31869 19.4182 5.54329 19.7484 6.49987 19.1962L7.50336 18.6168C7.96934 18.9342 8.47054 19.2036 8.99987 19.418V20C8.99987 21.1046 9.89813 22 10.9978 22H13.002C14.1054 22 14.9999 21.1123 14.9999 20V19.418C15.5292 19.2036 16.0304 18.9342 16.4964 18.6168L17.4999 19.1962C18.4565 19.7484 19.6811 19.4182 20.2309 18.4659L21.233 16.7302C21.7847 15.7747 21.4631 14.5561 20.4999 14L19.8362 13.6169C19.9435 13.0946 19.9999 12.5539 19.9999 12C19.9999 11.5083 19.9555 11.0269 19.8704 10.5596L20.4999 10.1962C21.4631 9.64002 21.7847 8.4215 21.233 7.46591L20.2309 5.73024C19.6811 4.77792 18.4565 4.44772 17.4999 5L16.6501 5.49059C16.1413 5.1263 15.5879 4.82019 14.9999 4.582V4C14.9999 2.88773 14.1054 2 13.002 2H10.9978C9.89813 2 8.99987 2.89543 8.99987 4V4.582C8.41182 4.82019 7.85849 5.1263 7.3496 5.49059L6.49987 5C5.54329 4.44772 4.31869 4.77792 3.76887 5.73024L2.76678 7.46591ZM7.59109 16.2567C7.59109 16.2567 5.50034 17.4649 5.50092 17.4659L4.49987 15.7321L6.41289 14.6276L6.12259 13.2144C6.04127 12.8185 5.99987 12.4125 5.99987 12C5.99987 11.6333 6.03259 11.2717 6.09701 10.9177L6.34923 9.53183L4.49987 8.4641C4.49987 8.4641 5.50016 6.73186 5.50014 6.73221L7.46576 7.86706L8.51375 7.11686C8.89804 6.84177 9.31313 6.61296 9.75073 6.4357L10.9999 5.92973C10.9999 5.92973 10.9989 4 10.9978 4H12.9999V5.92973L14.249 6.4357C14.6866 6.61296 15.1017 6.84177 15.486 7.11686L16.534 7.86706C16.534 7.86706 18.4994 6.73124 18.4988 6.73024L19.4999 8.4641L17.6505 9.53183L17.9027 10.9177C17.9672 11.2717 17.9999 11.6333 17.9999 12C17.9999 12.4125 17.9585 12.8185 17.8772 13.2144L17.5869 14.6276L19.4999 15.7321C19.4999 15.7321 18.4996 17.4643 18.4996 17.4639L16.4087 16.2567L15.3706 16.9638C15.0189 17.2033 14.6431 17.4047 14.249 17.5643L12.9999 18.0703V20C12.9999 20 10.9996 19.9998 10.9999 19.9997V18.0703L9.75073 17.5643C9.35669 17.4047 8.98084 17.2033 8.62919 16.9638L7.59109 16.2567ZM11.9999 8C14.2082 8 15.9999 9.79167 15.9999 12C15.9999 14.2083 14.2082 16 11.9999 16C9.79154 16 7.99987 14.2083 7.99987 12C7.99987 9.79167 9.79154 8 11.9999 8ZM9.99987 12C9.99987 10.8962 10.8961 10 11.9999 10C13.1036 10 13.9999 10.8962 13.9999 12C13.9999 13.1038 13.1036 14 11.9999 14C10.8961 14 9.99987 13.1038 9.99987 12Z" fill="#3456F3"/>
</svg>
