<svg width="24" height="24" viewBox="0 0 24 24" fill="none" xmlns="http://www.w3.org/2000/svg">
<path fill-rule="evenodd" clip-rule="evenodd" d="M6.00014 9C6.00014 10.9808 6.96 12.7374 8.43995 13.8301C6.15362 14.9539 4.43334 17.1379 4.01203 19.8463C3.92714 20.392 4.30071 20.9032 4.84644 20.9881C5.39216 21.073 5.90337 20.6994 5.98826 20.1537C6.50475 16.8334 9.61505 14.5605 12.9353 15.077C15.5521 15.4841 17.605 17.537 18.012 20.1537C18.0969 20.6994 18.6081 21.073 19.1538 20.9881C19.6996 20.9032 20.0731 20.392 19.9883 19.8463C19.575 17.1899 17.8853 14.9708 15.5602 13.8302C17.0402 12.7375 18.0001 10.9808 18.0001 9C18.0001 5.68629 15.3139 3 12.0001 3C8.68643 3 6.00014 5.68629 6.00014 9ZM16.0001 9C16.0001 11.2091 14.2093 13 12.0001 13C9.791 13 8.00014 11.2091 8.00014 9C8.00014 6.79086 9.791 5 12.0001 5C14.2093 5 16.0001 6.79086 16.0001 9Z" fill="#3456F3"/>
</svg>
